<svg xmlns="http://www.w3.org/2000/svg" width="59" height="52" viewBox="0 0 59 52"><g><g><path fill="#fff" d="M13.903 24.71h-1.292v-3.452h1.292zm2.228 0H14.84v-3.452h1.292zm2.229 0h-1.293v-3.452h1.292zm2.272 0H19.34v-3.452h1.292zm2.228 0H21.48v-3.452h1.381zm2.228 0h-1.381v-3.452h1.381zm2.184 0H25.98v-3.452h1.292zm2.228 0h-1.292v-3.452H29.5zm2.228 0h-1.292v-3.452h1.292zm2.273 0h-1.292v-3.452H34zm2.228 0h-1.382v-3.452h1.382zm2.228 0h-1.381v-3.452h1.381zm2.184 0h-1.293v-3.452h1.293zm2.228 0h-1.293v-3.452h1.293zm2.228 0h-1.293v-3.452h1.293zm2.272 0h-1.292v-3.452h1.292zM13.903 26.46h-1.292v-1.355h1.292zm2.228 0H14.84v-1.355h1.292zm2.229 0h-1.293v-1.355h1.292zm2.272 0H19.34v-1.355h1.292zm.847-1.355h1.381v1.399H21.48zm2.228.044l1.381-.044v1.399h-1.381zm3.565 1.31H25.98v-1.354h1.292zm2.228 0h-1.292v-1.354H29.5zm2.228 0h-1.292v-1.354h1.292zm2.273 0h-1.292v-1.354H34zm.846-1.354l1.382.044v1.355h-1.382zm2.228.044l1.382-.044v1.399h-1.381zm3.566 1.31h-1.293v-1.354h1.293zm2.228 0h-1.293v-1.354h1.293zm2.228 0h-1.293v-1.354h1.293zm2.272 0h-1.292v-1.354h1.292zM16.933 19.03h-1.158v-.481h1.158zm1.828 0h-1.293v-.481h1.293zm1.827 0h-1.293v-.481h1.293zm1.693 0h-1.159v-.481h1.159zm9.002 0H29.99v-.481h1.292zm-1.828 0h-1.292v-.481h1.292zm-1.827 0H26.47v-.481h1.158zm-3.52 0h-1.292v-.481h1.292zm1.827 0h-1.292v-.481h1.292zm16.042 0h-1.292v-.481h1.292zm-1.827 0h-1.292v-.481h1.292zm-1.827 0h-1.158v-.481h1.158zm-1.693 0h-1.292v-.481h1.292zm-1.827 0H33.51v-.481h1.292zm-1.783 0h-1.203v-.481h1.203zm-16.087-1.18h-1.158v-.962h1.158zm26.738 1.18h-1.159v-.481h1.159zm-24.91-1.18h-1.293v-.962h1.293zm1.827 0h-1.293v-.962h1.293zm1.738 0h-1.204v-.962h1.204zm1.782 0h-1.292v-.962h1.292zm1.827 0h-1.292v-.962h1.292zm1.693 0H26.47v-.962h1.158zm1.827 0h-1.292v-.962h1.292zm8.868 0h-1.158v-.962h1.158zm-1.693 0h-1.292v-.962h1.292zm-1.827 0H33.51v-.962h1.292zm-1.783 0h-1.203v-.962h1.203zm-1.738 0H29.99v-.962h1.292zm12.389 0h-1.159v-.962h1.159zm-1.694 0h-1.292v-.962h1.292zm-1.827 0h-1.292v-.962h1.292zm-23.216-1.792h-1.16v-.962h1.16zm1.827 0h-1.293v-.962h1.293zm1.827 0h-1.293v-.962h1.293zm1.738 0h-1.204v-.962h1.204zm1.782 0h-1.292v-.962h1.292zm1.827 0h-1.292v-.962h1.292zm1.693 0H26.47v-.962h1.158zm1.827 0h-1.292v-.962h1.292zm8.868 0h-1.158v-.962h1.158zm-1.693 0h-1.292v-.962h1.292zm-1.827 0H33.51v-.962h1.292zm-1.783 0h-1.203v-.962h1.203zm-1.738 0H29.99v-.962h1.292zm12.389 0h-1.159v-.962h1.159zm-1.694 0h-1.292v-.962h1.292zm-1.827 0h-1.292v-.962h1.292zm-23.216-1.704h-1.16v-.962h1.16zm1.827 0h-1.293v-.962h1.293zm1.827 0h-1.293v-.962h1.293zm1.738 0h-1.204v-.962h1.204zm1.782 0h-1.292v-.962h1.292zm1.827 0h-1.292v-.962h1.292zm1.693 0H26.47v-.962h1.158zm1.827 0h-1.292v-.962h1.292zm8.868 0h-1.158v-.962h1.158zm-1.693 0h-1.292v-.962h1.292zm-1.827 0H33.51v-.962h1.292zm-1.783 0h-1.203v-.962h1.203zm-1.738 0H29.99v-.962h1.292zm12.389 0h-1.159v-.962h1.159zm-1.694 0h-1.292v-.962h1.292zm-1.827 0h-1.292v-.962h1.292zm-23.216-1.749h-1.16v-.961h1.16zm1.827 0h-1.293v-.961h1.293zm1.827 0h-1.293v-.961h1.293zm1.738 0h-1.204v-.961h1.204zm1.782 0h-1.292v-.961h1.292zm1.827 0h-1.292v-.961h1.292zm1.693 0H26.47v-.961h1.158zm1.827 0h-1.292v-.961h1.292zm8.868 0h-1.158v-.961h1.158zm-1.693 0h-1.292v-.961h1.292zm-1.827 0H33.51v-.961h1.292zm-1.783 0h-1.203v-.961h1.203zm-1.738 0H29.99v-.961h1.292zm12.389 0h-1.159v-.961h1.159zm-1.694 0h-1.292v-.961h1.292zm-1.827 0h-1.292v-.961h1.292zm-23.216-1.791h-1.16v-.962h1.16zm1.827 0h-1.293v-.962h1.293zm1.827 0h-1.293v-.962h1.293zm1.738 0h-1.204v-.962h1.204zm1.782 0h-1.292v-.962h1.292zm1.827 0h-1.292v-.962h1.292zm1.693 0H26.47v-.962h1.158zm1.827 0h-1.292v-.962h1.292zm8.868 0h-1.158v-.962h1.158zm-1.693 0h-1.292v-.962h1.292zm-1.827 0H33.51v-.962h1.292zm-1.783 0h-1.203v-.962h1.203zm-1.738 0H29.99v-.962h1.292zm12.389 0h-1.159v-.962h1.159zm-1.694 0h-1.292v-.962h1.292zm-1.827 0h-1.292v-.962h1.292zm18.672 16.17v.83H0v-.83h3.12V18.68h.534v.393h1.693v-.437h2.674v.394h1.827v-.394h.401v.437l1.337 1.355h2.763l.044-10.882h-.445V6.793l.445-.437h4.813v-.437h1.382v.437h7.575V3.734h.847V.5h2.673v1.355h-2.228v1.792h.98v2.622h7.487v-.437h1.382v.437h5.793v.437h.445v2.622h-.445v10.925h3.119l1.381-.83v-.83h.401v.393h1.828v-.437h2.673v.437h1.694v-.394h.534v8.304zM14.393 9.458h.402v10.969h.98v-.918h1.158v.918h.535v-.918h1.293v.918h.534v-.918h1.293v.918h.534v-.918h1.159v.918h.535v-.918h1.292v.918h.535v-.918h1.292v.918h.535v-.918h1.158v.918h.535v-.918h1.292v.918h.535v-.918h1.293v.918h.534v-.918h1.159v.918h.535v-.918h1.292v.918h.535v-.918h1.292v.918h.535v-.918h1.158v.918h.535v-.918h1.292v.918h.535v-.918h1.292v.918h.535v-.918h1.159v.918h.98V9.415h.401v-1.66h-.446v1.354h-.534V7.754h-.312V9.11h-.535V7.754h-.312V9.11h-.535V7.754h-.445V9.11h-.535V7.754h-.356V9.11h-.49V7.754h-.313V9.11h-.534V7.754h-.401V9.11h-.535V7.754h-.312V9.11h-.535V7.754h-.312V9.11h-.534V7.754h-.446V9.11h-.535V7.754h-.356V9.11h-.535V7.754h-.312V9.11h-.535V7.754h-.445V9.11h-.535V7.754h-.312V9.11h-.535V7.754h-.312V9.11h-.534V7.754h-.401V9.11h-.535V7.754h-.312V9.11H29.9V7.754h-.312V9.11h-.535V7.754h-.445V9.11h-.535V7.754h-.312V9.11h-.535V7.754h-.312V9.11h-.534V7.754h-.446V9.11H25.4V7.754h-.312V9.11h-.534V7.754h-.312V9.11h-.535V7.754h-.446V9.11h-.534V7.754h-.312V9.11h-.535V7.754h-.312V9.11h-.535V7.754h-.445V9.11h-.535V7.754h-.312V9.11h-.535V7.754h-.312V9.11h-.535V7.754h-.445V9.11h-.535V7.754h-.312V9.11h-.535V7.754h-.312V9.11h-.534V7.754h-.446V9.11h-.445V7.754h-.402zm.847-2.666h-.535v.568h.535zm.936 0h-.535v.568h.535zm.891 0h-.535v.568h.535zm.847 0h-.535v.568h.535zm.936 0h-.535v.568h.535zm.89 0h-.534v.568h.535zm.848 0h-.535v.568h.535zm.935 0h-.534v.568h.534zm.892.568v-.568h-.535v.568zm.846-.568h-.534v.568h.534zm.936 0h-.535v.568h.535zm.891.568v-.568h-.534v.568zm.847 0v-.568H25.4v.568zm.936-.568h-.535v.568h.535zm.847 0h-.535v.568h.535zm.89 0h-.534v.568h.535zm.937 0h-.535v.568h.535zm.356-.83v-.525H28.61v.525zm.49.83h-.534v.568h.534zm.892.568v-.568h-.535v.568zm.935-.568h-.535v.568h.535zm.847 0h-.535v.568h.535zm.891 0h-.535v.568h.535zm.936 0h-.535v.568h.535zm.847 0h-.535v.568h.535zm.89 0h-.534v.568h.535zm.937 0h-.535v.568h.535zm.846 0h-.534v.568h.534zm.892 0h-.535v.568h.535zm.935 0h-.534v.568h.534zm.847 0h-.535v.568h.535zm.891 0h-.534v.568h.534zm.936 0h-.535v.568h.535zm.847 0h-.535v.568h.535zm.891 0h-.535v.568h.535zM9.893 26.94v-7.43H3.699v7.43H4.5v-6.075h.445v6.075h.936v-6.6h-.535v-.436h2.674v.393h-.4v6.599h.98V20.82h.445v6.075zm38.279-6.119H11.72v6.075h36.452zm8.02 6.075v-7.43h-6.194v7.43h.847V20.82h.58v6.075h.846v-6.6h-.445v-.436h2.673v.437h-.535v6.599h.847V20.82h.535v6.075zM.135 32.27H3.92v4.676h-.935v-3.89H1.114v3.89h-.98zm4.812 0h1.56c.58 0 .98.044 1.159.088.267.087.49.218.668.48.178.219.267.525.267.918 0 .306-.044.525-.178.743-.133.218-.223.35-.4.48a1.215 1.215 0 0 1-.491.22c-.223.043-.58.087-.98.087h-.624v1.791h-.98zm.936 2.142h.535c.401 0 .624-.044.757-.088.134-.044.223-.13.312-.218.09-.088.09-.219.09-.35a.728.728 0 0 0-.134-.437c-.09-.131-.223-.175-.401-.219-.134 0-.357-.043-.713-.043h-.446zm7.22 2.578h-1.026l-.445-1.093H9.714l-.4 1.05H8.288l1.871-4.677h1.025zm-1.739-1.88l-.668-1.747-.669 1.748zm4.19-2.84c.356 0 .667 0 .846.044.178.044.356.087.49.175.134.087.267.218.356.393.09.175.134.35.134.568 0 .219-.044.437-.178.612s-.267.306-.49.393c.312.088.535.219.668.437.134.219.223.437.223.7 0 .218-.045.437-.134.611-.089.219-.223.35-.4.481-.179.131-.402.175-.67.219-.177 0-.534.043-1.158.043h-1.649v-4.676zm-.937 1.88h1.337a.57.57 0 0 0 .401-.175.49.49 0 0 0 .134-.35.49.49 0 0 0-.134-.35c-.089-.087-.223-.13-.356-.175h-1.382zm0 .786v1.267h.892c.356 0 .579 0 .668-.043.134-.044.267-.088.356-.175.09-.087.134-.219.134-.393a.81.81 0 0 0-.089-.35c-.045-.088-.178-.175-.312-.219-.134-.043-.401-.087-.847-.087zm4.768-2.666v3.103l1.961-3.103h.98v4.676h-.89v-3.059l-1.917 3.06h-.98V32.27zm4.947 4.72v-3.89h-1.426v-.786h3.788v.787h-1.426v3.889zm3.03-4.72h3.565v.787h-2.585v1.049h2.407v.786H28.34v1.268h2.674v.786h-3.654zm4.768 0h3.342v4.676h-.98v-3.89h-1.426v2.011c0 .568 0 .962-.045 1.224a.99.99 0 0 1-.267.524c-.134.131-.401.175-.713.175-.134 0-.312 0-.624-.044v-.743h.223c.223 0 .356-.043.401-.087.045-.044.09-.175.09-.393zm5.348 0v1.88h1.292c.624 0 1.07.13 1.337.436.267.263.4.612.4 1.005 0 .306-.088.612-.267.83-.178.22-.356.394-.579.438-.223.087-.535.131-.936.131h-2.272v-4.72zm0 3.933h.935c.312 0 .535 0 .624-.043a.516.516 0 0 0 .312-.219c.09-.087.134-.218.134-.393 0-.219-.09-.393-.223-.48-.178-.088-.446-.132-.802-.132h-.98zm7.664-.655a2.11 2.11 0 0 1-.713 1.136c-.356.262-.757.393-1.292.393-.624 0-1.159-.218-1.56-.655-.4-.437-.624-1.005-.624-1.748 0-.787.223-1.399.624-1.836.401-.437.936-.655 1.604-.655.58 0 1.07.175 1.426.524.223.219.402.48.49.874l-.935.219a.853.853 0 0 0-.357-.568 1.108 1.108 0 0 0-.668-.219c-.356 0-.624.131-.847.393-.222.263-.312.656-.312 1.224 0 .612.09 1.005.312 1.267.223.263.49.394.847.394.267 0 .49-.088.668-.219.179-.218.312-.48.401-.83zm1.738 1.442v-3.89h-1.426v-.786h3.788v.787h-1.426v3.889zm2.986-4.72h1.916c.357 0 .668 0 .847.044.178.044.356.087.49.175.134.087.267.218.356.393.09.175.134.35.134.568 0 .219-.045.437-.178.612-.134.175-.268.306-.49.393.312.088.534.219.668.437.134.219.223.437.223.7 0 .218-.045.437-.134.611-.089.219-.223.35-.4.481-.18.131-.402.175-.67.219-.178 0-.534.043-1.158.043H49.82zm.98 1.88h1.337a.57.57 0 0 0 .401-.175.49.49 0 0 0 .134-.35.49.49 0 0 0-.134-.35c-.089-.087-.223-.13-.356-.175h-1.382zm0 .786v1.267h.891c.357 0 .58 0 .669-.043.133-.044.267-.088.356-.175.09-.087.134-.219.134-.393a.81.81 0 0 0-.09-.35c-.044-.088-.177-.175-.311-.219-.134-.043-.401-.087-.847-.087zm3.52-.262c0-.48.09-.874.223-1.224.09-.218.268-.437.446-.655.178-.175.401-.35.624-.437.312-.131.624-.175 1.025-.175.713 0 1.248.218 1.693.655.401.437.624 1.006.624 1.792 0 .743-.223 1.355-.624 1.792-.4.437-.98.655-1.693.655-.713 0-1.292-.218-1.694-.655-.445-.437-.623-1.005-.623-1.748zm.98-.044c0 .525.135.918.357 1.224.268.262.58.393.936.393.401 0 .713-.131.936-.393.267-.262.356-.7.356-1.224s-.133-.918-.356-1.223c-.223-.263-.58-.394-.936-.394-.4 0-.713.131-.98.394-.178.262-.312.699-.312 1.223zm-49.73 9.134v-4.72h1.56c.579 0 .98.044 1.158.087.267.088.49.219.669.481.178.219.267.525.267.918 0 .306-.045.524-.178.743-.134.218-.223.35-.401.48a1.215 1.215 0 0 1-.49.219c-.223.044-.58.087-.981.087h-.624v1.705zm.98-2.579h.535c.401 0 .624-.043.757-.087.134-.044.223-.131.312-.218.09-.088.09-.219.09-.35a.728.728 0 0 0-.134-.437c-.09-.131-.223-.175-.401-.219-.134 0-.357-.043-.713-.043h-.446zm3.298.263c0-.481.089-.874.223-1.224.089-.219.267-.437.445-.656.178-.174.401-.35.624-.437.312-.13.624-.174 1.025-.174.713 0 1.248.218 1.693.655.401.437.624 1.005.624 1.792 0 .743-.223 1.355-.624 1.792-.4.437-.98.655-1.693.655-.713 0-1.292-.218-1.693-.655-.401-.437-.624-1.005-.624-1.748zm.98-.044c0 .524.134.918.357 1.223.267.263.579.394.935.394.402 0 .713-.131.936-.394.268-.262.357-.699.357-1.223 0-.525-.134-.918-.357-1.224-.223-.262-.58-.393-.936-.393-.4 0-.713.131-.98.393-.178.262-.312.7-.312 1.224zm8.511.918a2.11 2.11 0 0 1-.713 1.136c-.356.262-.757.393-1.292.393-.624 0-1.159-.218-1.56-.655-.4-.437-.623-1.006-.623-1.748 0-.787.222-1.399.623-1.836.401-.437.936-.655 1.605-.655.579 0 1.07.174 1.426.524.222.218.4.48.49.874l-.936.219a.853.853 0 0 0-.356-.569 1.109 1.109 0 0 0-.669-.218c-.356 0-.624.131-.847.393-.222.262-.312.656-.312 1.224 0 .612.09 1.005.312 1.267.223.262.49.394.847.394.267 0 .49-.088.669-.219.178-.219.311-.48.4-.83zm4.902 0a2.11 2.11 0 0 1-.713 1.136c-.356.262-.757.393-1.292.393-.624 0-1.159-.218-1.56-.655-.4-.437-.624-1.006-.624-1.748 0-.787.223-1.399.624-1.836.401-.437.936-.655 1.604-.655.58 0 1.07.174 1.426.524.223.218.402.48.49.874l-.935.219a.853.853 0 0 0-.357-.569 1.109 1.109 0 0 0-.668-.218c-.356 0-.624.131-.847.393-.223.262-.312.656-.312 1.224 0 .612.09 1.005.312 1.267.223.262.49.394.847.394.267 0 .49-.088.668-.219.223-.219.357-.48.401-.83zm1.872-3.278v3.103l1.96-3.103h.98v4.72h-.89v-3.06l-1.916 3.06h-.98v-4.72zm4.01 0h.892v3.103l1.96-3.103H34v4.72h-.89v-3.06l-1.917 3.06h-.98zm2.897-1.136c-.045.306-.134.524-.312.699-.178.175-.401.262-.713.262-.312 0-.535-.087-.713-.262-.178-.175-.267-.393-.312-.7h.446c0 .132.089.263.178.35.09.088.223.131.401.131.178 0 .312-.043.401-.13a.395.395 0 0 0 .178-.35zm5.971 4.414a2.11 2.11 0 0 1-.713 1.136c-.356.262-.757.393-1.292.393-.624 0-1.159-.218-1.56-.655-.4-.437-.624-1.006-.624-1.748 0-.787.223-1.399.624-1.836.401-.437.936-.655 1.605-.655.579 0 1.069.174 1.425.524.223.218.402.48.49.874l-.935.219a.853.853 0 0 0-.357-.569 1.109 1.109 0 0 0-.668-.218c-.356 0-.624.131-.847.393-.222.262-.312.656-.312 1.224 0 .612.09 1.005.312 1.267.223.262.49.394.847.394.267 0 .49-.088.668-.219.179-.219.312-.48.402-.83zm.936-3.278h.98v2.01a.6.6 0 0 0 .446-.174c.09-.088.178-.35.356-.743.179-.525.402-.83.624-.962.179-.131.535-.175.98-.175h.134v.7h-.133c-.179 0-.357.043-.446.087a.532.532 0 0 0-.223.218c-.044.088-.133.306-.267.612-.045.175-.134.306-.178.394-.09.087-.179.218-.357.306a.888.888 0 0 1 .535.35c.134.174.312.436.446.786l.668 1.267h-1.159l-.579-1.224s-.045-.043-.045-.087c0 0-.044-.087-.133-.218-.134-.219-.223-.394-.312-.437a.853.853 0 0 0-.357-.088v2.098h-.98zm3.966 2.404c0-.481.09-.874.223-1.224.089-.219.267-.437.445-.656.179-.174.402-.35.624-.437.312-.13.624-.174 1.025-.174.713 0 1.248.218 1.694.655.4.437.624 1.005.624 1.792 0 .743-.223 1.355-.624 1.792-.401.437-.98.655-1.694.655-.713 0-1.292-.218-1.693-.655-.401-.437-.624-1.005-.624-1.748zm1.025-.044c0 .524.134.918.356 1.223.268.263.58.394.936.394.401 0 .713-.131.936-.394.267-.262.357-.699.357-1.223 0-.525-.134-.918-.357-1.224-.223-.262-.58-.393-.936-.393-.4 0-.713.131-.98.393-.178.262-.312.7-.312 1.224zm4.5-2.36h.892v3.103l1.96-3.103h.981v4.72h-.891v-3.06l-1.916 3.06h-.98zm2.942-1.136c-.045.306-.134.524-.312.699-.178.175-.401.262-.713.262-.312 0-.535-.087-.713-.262-.178-.175-.268-.393-.312-.7h.446c0 .132.089.263.178.35.089.088.223.131.4.131.18 0 .313-.043.402-.13.09-.088.134-.22.178-.35zm-41.31 12.63h-.935v-.569c-.757-.043-1.292-.218-1.604-.568a1.883 1.883 0 0 1-.49-1.267c0-.524.178-.961.49-1.311s.847-.524 1.604-.524v-.481h.936v.48c.758.044 1.292.219 1.604.569.312.35.49.786.49 1.31 0 .525-.178.962-.49 1.268-.312.306-.846.524-1.604.524zm-.935-3.453c-.4 0-.713.088-.891.262-.178.175-.267.437-.267.787 0 .7.356 1.049 1.158 1.049zm.936 2.098c.267 0 .49-.044.668-.131.179-.088.312-.175.401-.35.09-.131.134-.35.134-.612 0-.699-.401-1.005-1.159-1.005zm2.941 1.355v-4.676h3.565v.786h-2.585v1.049h2.407v.787h-2.407v1.267h2.674v.787zm4.946-4.72h3.298v3.89h.401V51.5h-.802v-1.005h-3.03V51.5h-.802v-1.792h.4c.179-.393.313-.874.402-1.398.044-.525.089-1.18.089-2.01zm.936.786c0 1.443-.134 2.448-.4 3.103h1.826v-3.103zm3.565 3.934v-4.676h3.565v.786h-2.584v1.049h2.406v.787h-2.406v1.267h2.673v.787zm4.545-4.677h1.56c.58 0 .98.044 1.159.088.267.087.49.218.668.48.178.22.267.525.267.918 0 .306-.044.525-.178.743-.133.219-.223.35-.4.481a1.214 1.214 0 0 1-.491.218c-.223.044-.58.088-.98.088h-.624v1.792h-.98zm.98.787v1.311h.536c.4 0 .623-.044.757-.087.134-.044.223-.131.312-.219.09-.087.09-.218.09-.35a.728.728 0 0 0-.134-.436c-.09-.132-.223-.175-.402-.219-.133 0-.356-.044-.713-.044zm7.309 3.89h-1.07l-.4-1.05H32.93l-.4 1.05h-1.026l1.872-4.676h1.025zm-1.782-1.88l-.669-1.748-.668 1.748zm2.406-2.84h.98v3.89h1.872v-3.89h.98v3.89h.401V51.5h-.802v-1.005h-3.387zm4.99 0h.892v3.103l1.96-3.103h.981v4.676h-.891v-3.06l-1.916 3.06h-1.025zm4.903 0h.89v3.103l1.962-3.103h.98v4.676h-.891v-3.06l-1.917 3.06h-1.024z"/></g></g></svg>