<svg xmlns="http://www.w3.org/2000/svg" width="46" height="40" viewBox="0 0 46 40"><g><g><path fill="#fff" d="M10.84 18.989H9.832V16.28h1.008zm1.737 0h-1.008V16.28h1.008zm1.737 0h-1.007V16.28h1.007zm1.772 0H15.08V16.28h1.007zm1.737 0h-1.077V16.28h1.077zm1.737 0h-1.077V16.28h1.077zm1.703 0h-1.008V16.28h1.008zm1.737 0h-1.008V16.28H23zm1.737 0H23.73V16.28h1.007zm1.772 0h-1.008V16.28h1.008zm1.737 0H27.17V16.28h1.077zm1.737 0h-1.077V16.28h1.077zm1.703 0h-1.008V16.28h1.008zm1.737 0h-1.008V16.28h1.008zm1.737 0h-1.007V16.28h1.007zm1.772 0h-1.008V16.28h1.008zm-26.092 1.37H9.832v-1.062h1.008zm1.737 0h-1.008v-1.062h1.008zm1.737 0h-1.007v-1.062h1.007zm1.772 0H15.08v-1.062h1.007zm.66-1.062h1.077v1.097h-1.077zm1.737.035l1.077-.035v1.097h-1.077zm2.78 1.028h-1.008v-1.063h1.008zm1.737 0h-1.008v-1.063H23zm1.737 0H23.73v-1.063h1.007zm1.772 0h-1.008v-1.063h1.008zm.66-1.063l1.077.035v1.062H27.17zm1.737.035l1.077-.035v1.097h-1.077zm2.78 1.028h-1.008v-1.063h1.008zm1.737 0h-1.008v-1.063h1.008zm1.737 0h-1.007v-1.063h1.007zm1.772 0h-1.008v-1.063h1.008zm-23.73-5.827H12.3v-.377h.903zm1.425 0h-1.008v-.377h1.008zm1.424 0h-1.007v-.377h1.007zm1.32 0h-.903v-.377h.904zm7.019 0h-1.008v-.377h1.008zm-1.425 0h-1.007v-.377h1.007zm-1.424 0h-.903v-.377h.903zm-2.745 0h-1.008v-.377h1.008zm1.425 0h-1.008v-.377h1.008zm12.507 0H31.72v-.377h1.008zm-1.424 0h-1.008v-.377h1.008zm-1.425 0h-.903v-.377h.903zm-1.32 0H27.55v-.377h1.008zm-1.425 0h-1.007v-.377h1.007zm-1.39 0h-.937v-.377h.938zm-12.542-.925H12.3v-.755h.903zm20.846.925h-.903v-.377h.903zm-19.421-.925h-1.008v-.755h1.008zm1.424 0h-1.007v-.755h1.007zm1.355 0h-.938v-.755h.938zm1.39 0h-1.008v-.755h1.008zm1.425 0h-1.008v-.755h1.008zm1.32 0h-.903v-.755h.903zm1.424 0h-1.007v-.755h1.007zm6.914 0h-.903v-.755h.903zm-1.32 0H27.55v-.755h1.008zm-1.425 0h-1.007v-.755h1.007zm-1.39 0h-.937v-.755h.938zm-1.354 0h-1.008v-.755h1.008zm9.658 0h-.903v-.755h.903zm-1.32 0H31.72v-.755h1.008zm-1.424 0h-1.008v-.755h1.008zm-18.102-1.406H12.3v-.754h.903zm1.425 0h-1.008v-.754h1.008zm1.424 0h-1.007v-.754h1.007zm1.355 0h-.938v-.754h.938zm1.39 0h-1.008v-.754h1.008zm1.425 0h-1.008v-.754h1.008zm1.32 0h-.903v-.754h.903zm1.424 0h-1.007v-.754h1.007zm6.914 0h-.903v-.754h.903zm-1.32 0H27.55v-.754h1.008zm-1.425 0h-1.007v-.754h1.007zm-1.39 0h-.937v-.754h.938zm-1.354 0h-1.008v-.754h1.008zm9.658 0h-.903v-.754h.903zm-1.32 0H31.72v-.754h1.008zm-1.424 0h-1.008v-.754h1.008zm-18.102-1.336H12.3v-.755h.903zm1.425 0h-1.008v-.755h1.008zm1.424 0h-1.007v-.755h1.007zm1.355 0h-.938v-.755h.938zm1.39 0h-1.008v-.755h1.008zm1.425 0h-1.008v-.755h1.008zm1.32 0h-.903v-.755h.903zm1.424 0h-1.007v-.755h1.007zm6.914 0h-.903v-.755h.903zm-1.32 0H27.55v-.755h1.008zm-1.425 0h-1.007v-.755h1.007zm-1.39 0h-.937v-.755h.938zm-1.354 0h-1.008v-.755h1.008zm9.658 0h-.903v-.755h.903zm-1.32 0H31.72v-.755h1.008zm-1.424 0h-1.008v-.755h1.008zM13.202 9.494H12.3V8.74h.903zm1.425 0h-1.008V8.74h1.008zm1.424 0h-1.007V8.74h1.007zm1.355 0h-.938V8.74h.938zm1.39 0h-1.008V8.74h1.008zm1.425 0h-1.008V8.74h1.008zm1.32 0h-.903V8.74h.903zm1.424 0h-1.007V8.74h1.007zm6.914 0h-.903V8.74h.903zm-1.32 0H27.55V8.74h1.008zm-1.425 0h-1.007V8.74h1.007zm-1.39 0h-.937V8.74h.938zm-1.354 0h-1.008V8.74h1.008zm9.658 0h-.903V8.74h.903zm-1.32 0H31.72V8.74h1.008zm-1.424 0h-1.008V8.74h1.008zM13.202 8.09H12.3v-.754h.903zm1.425 0h-1.008v-.754h1.008zm1.424 0h-1.007v-.754h1.007zm1.355 0h-.938v-.754h.938zm1.39 0h-1.008v-.754h1.008zm1.425 0h-1.008v-.754h1.008zm1.32 0h-.903v-.754h.903zm1.424 0h-1.007v-.754h1.007zm6.914 0h-.903v-.754h.903zm-1.32 0H27.55v-.754h1.008zm-1.425 0h-1.007v-.754h1.007zm-1.39 0h-.937v-.754h.938zm-1.354 0h-1.008v-.754h1.008zm9.658 0h-.903v-.754h.903zm-1.32 0H31.72v-.754h1.008zm-1.424 0h-1.008v-.754h1.008zM45.86 20.771v.651H0v-.65h2.432v-6.513h.417v.308h1.32v-.342h2.085v.308h1.424v-.308h.313v.342l1.042 1.063h2.154l.035-8.535h-.347v-2.16l.347-.342h3.752V4.25h1.077v.343h5.907V2.536h.66V0h2.084v1.063h-1.737v1.405h.765v2.056h5.837v-.342h1.077v.342h4.516v.343h.348v2.057h-.348v8.569h2.432l1.077-.651v-.652h.313v.309h1.424v-.343h2.085v.343h1.32v-.309h.417v6.513zM11.222 7.027h.313v8.603h.764v-.72h.903v.72h.417v-.72h1.008v.72h.417v-.72h1.007v.72h.417v-.72h.904v.72h.416v-.72h1.008v.72h.417v-.72h1.007v.72h.417v-.72h.904v.72h.417v-.72h1.007v.72h.417v-.72h1.008v.72h.417v-.72h.903v.72h.417v-.72h1.007v.72h.417v-.72h1.008v.72h.417v-.72h.903v.72h.417v-.72h1.008v.72h.416v-.72h1.008v.72h.417v-.72h.903v.72h.765V6.992h.312V5.69h-.347v1.062h-.417V5.69h-.243v1.062H33.7V5.69h-.243v1.062h-.417V5.69h-.348v1.062h-.417V5.69h-.278v1.062h-.382V5.69h-.243v1.062h-.417V5.69h-.313v1.062h-.416V5.69h-.244v1.062h-.417V5.69h-.243v1.062h-.417V5.69h-.347v1.062h-.417V5.69h-.278v1.062h-.417V5.69h-.243v1.062h-.417V5.69h-.347v1.062h-.417V5.69h-.243v1.062h-.418V5.69h-.243v1.062h-.417V5.69h-.312v1.062h-.417V5.69h-.243v1.062h-.417V5.69h-.243v1.062h-.417V5.69h-.348v1.062h-.417V5.69h-.243v1.062h-.417V5.69h-.243v1.062h-.417V5.69h-.347v1.062h-.417V5.69h-.244v1.062h-.416V5.69H18.9v1.062h-.417V5.69h-.347v1.062h-.417V5.69h-.243v1.062h-.417V5.69h-.243v1.062h-.417V5.69h-.348v1.062h-.417V5.69h-.243v1.062h-.417V5.69h-.243v1.062h-.417V5.69h-.347v1.062h-.417V5.69h-.243v1.062h-.417V5.69h-.243v1.062h-.417V5.69h-.348v1.062h-.347V5.69h-.313zm.66-2.091h-.417v.445h.417zm.73 0h-.417v.445h.417zm.695 0h-.417v.445h.417zm.66 0h-.417v.445h.417zm.73 0h-.417v.445h.416zm.694 0h-.417v.445h.417zm.66 0h-.417v.445h.417zm.73 0h-.417v.445h.417zm.695.445v-.445h-.417v.445zm.66-.445h-.417v.445h.417zm.73 0h-.417v.445h.417zm.694.445v-.445h-.416v.445zm.66 0v-.445h-.416v.445zm.73-.445h-.417v.445h.417zm.66 0h-.417v.445h.417zm.695 0h-.417v.445h.417zm.73 0h-.417v.445h.417zm.278-.652v-.41h-1.008v.41zm.382.652h-.417v.445h.417zm.695.445v-.445h-.417v.445zm.73-.445h-.418v.445h.417zm.66 0h-.418v.445h.417zm.694 0h-.417v.445h.417zm.73 0h-.417v.445h.417zm.66 0h-.417v.445h.417zm.695 0h-.417v.445h.417zm.73 0h-.417v.445h.417zm.66 0h-.417v.445h.417zm.694 0h-.416v.445h.417zm.73 0h-.417v.445h.417zm.66 0h-.417v.445h.417zm.695 0h-.417v.445h.417zm.73 0h-.417v.445h.417zm.66 0H33.7v.445h.417zm.695 0h-.417v.445h.417zm-27.1 15.8V14.91h-4.83v5.827h.626v-4.764h.347v4.764h.73V15.56H4.17v-.343h2.085v.309H5.94v5.176h.764v-4.765h.348v4.765zm29.844-4.798H9.137v4.765h28.42zm6.254 4.765v-5.827h-4.83v5.827h.661v-4.765h.452v4.765h.66v-5.176h-.348v-.343h2.085v.343h-.417v5.176h.66v-4.765h.417v4.765zM.104 24.919h2.953v3.667h-.73v-3.05H.87v3.05H.104zm3.752 0h1.217c.451 0 .764.034.903.068a.936.936 0 0 1 .521.377c.139.172.208.411.208.72 0 .24-.034.411-.139.583-.104.171-.173.274-.312.377a.945.945 0 0 1-.382.171 4.15 4.15 0 0 1-.765.069h-.486v1.405h-.764zm.73 1.68h.417c.313 0 .486-.035.59-.07.105-.034.174-.102.244-.17.07-.07.07-.172.07-.275a.574.574 0 0 0-.105-.343c-.07-.103-.174-.137-.313-.171-.104 0-.278-.034-.555-.034h-.348zm5.628 2.021h-.799l-.347-.857H7.574l-.313.823h-.799l1.46-3.667h.799zM8.86 27.146l-.522-1.37-.52 1.37zm3.265-2.227c.278 0 .522 0 .66.034.14.034.278.068.383.137a.813.813 0 0 1 .278.308c.07.138.104.275.104.446a.78.78 0 0 1-.14.48.848.848 0 0 1-.381.308c.243.069.417.172.52.343a1.026 1.026 0 0 1 .07 1.028.84.84 0 0 1-.312.377c-.14.103-.313.138-.521.172-.14 0-.417.034-.904.034h-1.285V24.92zm-.73 1.473h1.043a.443.443 0 0 0 .313-.137.387.387 0 0 0 .104-.274.387.387 0 0 0-.104-.274c-.07-.069-.174-.103-.278-.137h-1.077zm0 .617v.994h.696c.278 0 .451 0 .52-.034.105-.034.21-.068.279-.137.07-.069.104-.171.104-.308a.639.639 0 0 0-.07-.275c-.034-.068-.138-.137-.243-.171-.104-.034-.312-.069-.66-.069zm3.718-2.09v2.433l1.529-2.433h.764v3.667h-.695v-2.4l-1.494 2.4h-.764V24.92zm3.857 3.701v-3.05h-1.112v-.617h2.953v.617H19.7v3.05zm2.362-3.701h2.78v.617h-2.015v.822h1.876v.617h-1.876v.994h2.084v.617h-2.849zm3.718 0h2.606v3.667h-.765v-3.05H25.78v1.576c0 .446 0 .754-.035.96a.778.778 0 0 1-.209.411c-.104.103-.312.137-.556.137-.104 0-.243 0-.486-.034v-.583h.174c.173 0 .278-.034.312-.068.035-.034.07-.137.07-.309zm4.169 0v1.474h1.008c.486 0 .833.102 1.042.342.208.206.313.48.313.789 0 .24-.07.48-.209.65-.139.172-.278.31-.452.344-.173.068-.416.102-.73.102H28.42V24.92zm0 3.084h.73c.243 0 .417 0 .486-.034a.402.402 0 0 0 .243-.171c.07-.069.105-.172.105-.309 0-.171-.07-.308-.174-.377-.14-.068-.348-.103-.626-.103h-.764zm5.976-.514a1.657 1.657 0 0 1-.556.891c-.278.206-.59.309-1.008.309-.486 0-.903-.171-1.216-.514-.312-.343-.486-.788-.486-1.371 0-.617.174-1.097.486-1.44.313-.343.73-.514 1.251-.514.452 0 .834.137 1.112.411.174.172.313.377.382.686l-.73.171a.669.669 0 0 0-.277-.445.86.86 0 0 0-.522-.172.811.811 0 0 0-.66.309c-.173.205-.243.514-.243.96 0 .48.07.788.243.994a.811.811 0 0 0 .66.308.861.861 0 0 0 .522-.171c.138-.172.243-.377.312-.652zm1.355 1.131v-3.05h-1.112v-.617h2.953v.617H37.28v3.05zm2.328-3.701h1.494c.278 0 .52 0 .66.034.139.034.278.068.382.137a.812.812 0 0 1 .278.308c.07.138.104.275.104.446a.78.78 0 0 1-.139.48.847.847 0 0 1-.382.308c.243.069.417.172.521.343a1.026 1.026 0 0 1 .07 1.028.842.842 0 0 1-.313.377c-.14.103-.313.138-.521.172-.14 0-.417.034-.904.034h-1.285zm.764 1.473h1.042a.443.443 0 0 0 .313-.137.386.386 0 0 0 .104-.274.386.386 0 0 0-.104-.274c-.07-.069-.174-.103-.278-.137h-1.077zm0 .617v.994h.695c.278 0 .451 0 .521-.034.104-.034.208-.068.278-.137.07-.069.104-.171.104-.308a.639.639 0 0 0-.07-.275c-.034-.068-.138-.137-.243-.171-.104-.034-.312-.069-.66-.069zm2.745-.205c0-.377.07-.686.173-.96.07-.171.209-.343.348-.514.139-.137.312-.274.486-.343.243-.103.487-.137.8-.137.555 0 .972.171 1.32.514.312.343.486.788.486 1.405 0 .583-.174 1.063-.486 1.406-.313.343-.765.514-1.32.514-.557 0-1.008-.171-1.32-.514-.348-.343-.487-.789-.487-1.371zm.764-.034c0 .41.104.72.278.96.208.205.452.308.73.308.312 0 .556-.103.73-.309.208-.205.277-.548.277-.96 0-.41-.104-.72-.278-.96-.174-.205-.451-.308-.73-.308-.312 0-.555.103-.764.309-.139.205-.243.548-.243.96zM4.378 33.933v-3.702h1.216c.451 0 .764.035.903.069a.936.936 0 0 1 .521.377c.14.171.209.411.209.72 0 .24-.035.411-.14.582-.104.172-.173.275-.312.377a.945.945 0 0 1-.382.172 4.16 4.16 0 0 1-.765.068h-.486v1.337zm.764-2.022h.417c.313 0 .486-.034.59-.069.105-.034.174-.102.244-.171.07-.069.07-.171.07-.274a.573.573 0 0 0-.105-.343c-.07-.103-.174-.137-.313-.171-.104 0-.278-.035-.556-.035h-.347zm2.571.206c0-.377.07-.686.174-.96.07-.172.208-.343.347-.514.14-.137.313-.274.487-.343.243-.103.486-.137.799-.137.555 0 .972.171 1.32.514.313.343.486.788.486 1.405 0 .583-.173 1.063-.486 1.406-.313.342-.765.514-1.32.514-.556 0-1.008-.172-1.32-.514-.313-.343-.487-.789-.487-1.372zm.764-.035c0 .412.105.72.278.96.209.206.452.308.73.308.313 0 .556-.102.73-.308.208-.206.277-.548.277-.96 0-.411-.104-.72-.278-.96-.173-.205-.451-.308-.73-.308-.312 0-.555.103-.763.308-.14.206-.244.549-.244.96zm6.636.72a1.656 1.656 0 0 1-.556.891c-.277.206-.59.309-1.007.309-.487 0-.903-.172-1.216-.514-.313-.343-.487-.789-.487-1.371 0-.617.174-1.097.487-1.44.313-.343.73-.514 1.25-.514.452 0 .834.137 1.112.411.174.172.313.377.383.686l-.73.171a.67.67 0 0 0-.278-.446.861.861 0 0 0-.521-.17.811.811 0 0 0-.66.308c-.174.205-.243.514-.243.96 0 .48.069.788.243.993a.811.811 0 0 0 .66.309.861.861 0 0 0 .521-.172c.139-.171.243-.377.313-.65zm3.822 0a1.656 1.656 0 0 1-.556.891c-.278.206-.59.309-1.007.309-.487 0-.904-.172-1.216-.514-.313-.343-.487-.789-.487-1.371 0-.617.174-1.097.487-1.44.312-.343.73-.514 1.25-.514.452 0 .834.137 1.112.411.174.172.313.377.382.686l-.73.171a.67.67 0 0 0-.277-.446.86.86 0 0 0-.521-.17.811.811 0 0 0-.66.308c-.174.205-.244.514-.244.96 0 .48.07.788.243.993a.811.811 0 0 0 .66.309.86.86 0 0 0 .522-.172c.173-.171.278-.377.312-.65zm1.46-2.57v2.433l1.528-2.434h.764v3.702h-.695v-2.4l-1.494 2.4h-.764v-3.702zm3.126 0h.695v2.433l1.529-2.434h.764v3.702h-.695v-2.4l-1.494 2.4h-.764zm2.258-.892c-.034.24-.104.411-.243.549-.139.137-.312.205-.556.205-.243 0-.417-.068-.556-.205-.139-.137-.208-.309-.243-.549h.348c0 .103.07.206.139.274.07.069.173.103.312.103.14 0 .244-.034.313-.103a.31.31 0 0 0 .139-.274zm4.656 3.462a1.656 1.656 0 0 1-.556.891c-.278.206-.59.309-1.007.309-.487 0-.904-.172-1.216-.514-.313-.343-.487-.789-.487-1.371 0-.617.174-1.097.487-1.44.312-.343.73-.514 1.25-.514.452 0 .834.137 1.112.411.174.172.313.377.382.686l-.73.171a.67.67 0 0 0-.277-.446.86.86 0 0 0-.521-.17.811.811 0 0 0-.66.308c-.174.205-.244.514-.244.96 0 .48.07.788.243.993a.811.811 0 0 0 .66.309.86.86 0 0 0 .522-.172c.139-.171.243-.377.312-.65zm.73-2.57h.764v1.576a.466.466 0 0 0 .347-.137c.07-.069.14-.274.278-.583.14-.411.313-.651.487-.754.139-.103.417-.137.764-.137h.104v.548h-.104a.882.882 0 0 0-.347.07.415.415 0 0 0-.174.17c-.035.069-.104.24-.208.48-.035.137-.105.24-.14.309-.069.068-.138.171-.277.24a.692.692 0 0 1 .417.274c.104.137.243.343.347.617l.521.994h-.903l-.452-.96s-.035-.034-.035-.068c0 0-.034-.069-.104-.172-.104-.171-.174-.308-.243-.343a.662.662 0 0 0-.278-.068v1.645h-.764zm3.092 1.885c0-.377.07-.686.174-.96.069-.172.208-.343.347-.514.139-.137.313-.274.486-.343.244-.103.487-.137.8-.137.555 0 .972.171 1.32.514.312.343.486.788.486 1.405 0 .583-.174 1.063-.486 1.406-.313.342-.765.514-1.32.514-.556 0-1.008-.172-1.32-.514-.314-.343-.487-.789-.487-1.372zm.799-.035c0 .412.104.72.278.96.208.206.452.308.73.308.312 0 .555-.102.73-.308.208-.206.277-.548.277-.96 0-.411-.104-.72-.278-.96-.174-.205-.452-.308-.73-.308-.312 0-.555.103-.764.308-.139.206-.243.549-.243.96zm3.509-1.85h.695v2.433l1.529-2.434h.764v3.702h-.695v-2.4l-1.494 2.4H38.6zm2.293-.892c-.035.24-.104.411-.243.549-.14.137-.313.205-.556.205-.243 0-.417-.068-.556-.205-.139-.137-.208-.309-.243-.549h.347c0 .103.07.206.14.274.069.069.173.103.312.103s.243-.034.313-.103c.07-.068.104-.171.139-.274zM8.651 39.246h-.73V38.8c-.59-.034-1.007-.171-1.25-.445a1.482 1.482 0 0 1-.382-.994c0-.412.138-.754.382-1.028.243-.275.66-.412 1.25-.412v-.377h.73v.377c.59.034 1.008.171 1.25.446.244.274.383.617.383 1.028 0 .411-.139.754-.382.994s-.66.411-1.25.411zm-.73-2.708c-.312 0-.555.069-.694.206-.14.137-.209.343-.209.617 0 .548.278.822.903.822zm.73 1.645c.209 0 .382-.034.521-.103.14-.068.243-.137.313-.274.07-.102.104-.274.104-.48 0-.548-.313-.788-.903-.788zm2.293 1.063v-3.668h2.78v.617h-2.015v.823h1.876v.617h-1.876v.994h2.084v.617zm3.857-3.702h2.57v3.05h.313V40h-.625v-.788h-2.363V40h-.625v-1.405h.313c.139-.309.243-.686.312-1.097.035-.411.07-.926.07-1.577zm.73.617c0 1.131-.105 1.92-.313 2.434h1.424V36.16zm2.779 3.085v-3.668h2.78v.617h-2.016v.823h1.876v.617h-1.876v.994h2.085v.617zm3.544-3.668h1.216c.451 0 .764.035.903.069a.936.936 0 0 1 .521.377c.139.171.208.411.208.72 0 .24-.034.411-.139.583-.104.17-.173.274-.312.377a.945.945 0 0 1-.382.17 4.151 4.151 0 0 1-.765.07h-.486v1.405h-.764zm.764.617v1.029h.417c.312 0 .486-.035.59-.069a.623.623 0 0 0 .244-.171c.07-.069.07-.172.07-.274a.573.573 0 0 0-.105-.343c-.07-.103-.174-.137-.313-.172-.104 0-.278-.034-.556-.034zm5.698 3.05h-.834l-.313-.822h-1.494l-.313.823h-.799l1.46-3.668h.799zm-1.39-1.473l-.521-1.371-.521 1.371zm1.876-2.228h.764v3.05h1.46v-3.05h.764v3.05h.313V40h-.626v-.788h-2.64zm3.891 0h.695v2.434l1.529-2.434h.764v3.668h-.695v-2.4l-1.493 2.4h-.8zm3.822 0h.695v2.434l1.529-2.434h.764v3.668h-.695v-2.4l-1.494 2.4h-.799z"/></g></g></svg>