<svg xmlns="http://www.w3.org/2000/svg" width="18" height="16" viewBox="0 0 18 16"><g><g><path fill="#111" d="M9.003 13.542l-.091-.084C4.953 9.867 2.337 7.492 2.337 5.083c0-1.666 1.25-2.916 2.916-2.916 1.284 0 2.534.833 2.975 1.966h1.55C10.22 3 11.47 2.167 12.753 2.167c1.667 0 2.917 1.25 2.917 2.916 0 2.409-2.617 4.784-6.583 8.375zM12.753.5c-1.45 0-2.841.675-3.75 1.733A5.011 5.011 0 0 0 5.253.5C2.687.5.67 2.508.67 5.083c0 3.142 2.833 5.717 7.125 9.609l1.208 1.1 1.209-1.1c4.291-3.892 7.125-6.467 7.125-9.609C17.337 2.508 15.32.5 12.753.5z"/></g></g></svg>