<svg xmlns="http://www.w3.org/2000/svg" width="46" height="30" viewBox="0 0 46 30"><g><g><path fill="#fff" d="M.033 12.318h4.732v-7.55l3.906 7.252h4.368l3.905-7.252-.033 7.55h4.732L21.676 0h-4.732c-2.581 0-5.096 6.291-6.09 7.715C9.863 6.291 7.348 0 4.766 0H.033zm24.324 0h4.732v-7.55l3.905 7.252h4.369l3.905-7.252v7.55H46V0h-4.732c-2.582 0-5.097 6.291-6.09 7.715C34.186 6.291 31.671 0 29.09 0h-4.732zM9.299 30h12.377v-4.801H9.3c-1.654-.166-2.78-.828-3.508-2.02-.628-1.027-.695-2.384-.76-3.444h16.645v-4.238H0v5.165a9.01 9.01 0 0 0 2.912 6.656C3.872 28.178 6.62 30 9.3 30zm32.068-7.417c0 1.126-2.482 2.848-6.189 2.848-3.706 0-6.188-1.722-6.188-2.848s2.482-2.848 6.188-2.848c3.707 0 6.189 1.722 6.189 2.848zm4.567 0c0-4.14-4.733-7.417-10.756-7.417-6.023 0-10.755 3.245-10.755 7.417 0 4.139 4.732 7.417 10.755 7.417 6.023 0 10.723-3.245 10.756-7.417z"/></g></g></svg>