<svg width="18" height="18" viewBox="0 0 18 18" xmlns="http://www.w3.org/2000/svg" fill="none"><path fill-rule="evenodd" clip-rule="evenodd" d="M8.999 1.653c2.392 0 2.678.012 3.623.052.872.041 1.347.186 1.662.31.39.144.743.373 1.033.67.297.289.525.641.668 1.03.123.315.269.79.31 1.662.04.945.052 1.232.052 3.623s-.012 2.678-.055 3.623c-.047.872-.193 1.347-.315 1.662-.17.421-.359.715-.672 1.033-.291.296-.644.524-1.033.668-.311.123-.793.269-1.668.31-.95.04-1.23.052-3.629.052-2.398 0-2.678-.012-3.629-.055-.872-.047-1.353-.193-1.668-.315-.426-.17-.717-.359-1.03-.671-.315-.315-.516-.615-.67-1.033-.125-.311-.269-.793-.315-1.668l-.005-.16c-.028-.821-.042-1.211-.042-3.458 0-2.241.013-2.635.041-3.462l.006-.166c.046-.875.19-1.356.315-1.668.155-.426.356-.717.67-1.033.312-.312.604-.514 1.03-.672.315-.123.785-.268 1.66-.312l.071-.003c.895-.032 1.22-.044 3.554-.044l.037.026zm-1.761 3.098c.558-.231 1.156-.35 1.761-.35.604 0 1.202.119 1.761.35.558.231 1.065.57 1.492.997.427.427.766.934.997 1.493.231.558.35 1.156.35 1.761 0 .604-.119 1.202-.35 1.761-.231.558-.57 1.065-.997 1.493-.427.427-.934.766-1.492.997-.558.231-1.156.35-1.761.35-.604 0-1.202-.119-1.761-.35-.558-.231-1.065-.57-1.493-.997-.427-.427-.766-.934-.997-1.493-.231-.558-.35-1.156-.35-1.761 0-.604.119-1.202.35-1.761.231-.558.57-1.065.997-1.493.427-.427.934-.766 1.493-.997zm7.305.227c.202-.202.316-.475.316-.761 0-.592-.485-1.074-1.077-1.074-.141 0-.281.028-.411.082-.13.054-.249.133-.349.233-.1.1-.179.218-.233.349-.054.13-.082.27-.082.411 0 .141.028.281.082.411.054.13.133.249.233.349.1.1.218.179.349.233.13.054.27.082.411.082.285 0 .559-.113.761-.315zM8.999.04c-2.436 0-2.739.012-3.693.052-.957.047-1.605.195-2.176.417-.598.226-1.139.579-1.587 1.036-.458.446-.811.988-1.036 1.587-.222.571-.37 1.219-.417 2.176-.043.954-.052 1.257-.052 3.693s.012 2.739.052 3.693c.047.954.195 1.605.417 2.176.226.598.579 1.139 1.036 1.587.446.458.988.811 1.587 1.035.571.219 1.222.37 2.176.417.954.043 1.257.052 3.693.052s2.739-.012 3.693-.052c.954-.047 1.605-.199 2.176-.417.598-.226 1.139-.579 1.587-1.035.458-.446.812-.988 1.035-1.587.219-.571.37-1.221.417-2.176.043-.954.052-1.257.052-3.693s-.012-2.739-.052-3.693c-.047-.954-.199-1.608-.417-2.176-.226-.598-.579-1.139-1.035-1.587-.446-.458-.988-.812-1.587-1.036-.571-.222-1.221-.37-2.176-.417-.954-.043-1.257-.052-3.693-.052zm0 1.613c2.392 0 2.678.012 3.623.052.872.041 1.347.186 1.662.31.39.144.743.373 1.033.67.297.289.525.641.668 1.03.123.315.269.79.31 1.662.04.945.052 1.232.052 3.623s-.012 2.678-.055 3.623c-.047.872-.193 1.347-.315 1.662-.17.421-.359.715-.672 1.033-.291.296-.644.524-1.033.668-.311.123-.793.269-1.668.31-.95.04-1.23.052-3.629.052-2.398 0-2.678-.012-3.629-.055-.872-.047-1.353-.193-1.668-.315-.426-.17-.717-.359-1.03-.671-.315-.315-.516-.615-.67-1.033-.125-.311-.269-.793-.315-1.668l-.005-.16c-.028-.821-.042-1.211-.042-3.458 0-2.241.013-2.635.041-3.462l.006-.166c.046-.875.19-1.356.315-1.668.155-.426.356-.717.67-1.033.312-.312.604-.514 1.03-.672.315-.123.785-.268 1.66-.312l.071-.003c.895-.032 1.22-.044 3.554-.044l.037.026z" fill="#fff"/><path d="M8.999 11.988c-1.651 0-2.987-1.336-2.987-2.987s1.336-2.987 2.987-2.987 2.987 1.336 2.987 2.987-1.336 2.987-2.987 2.987z" fill="#fff"/></svg>